<mxfile host="Electron" modified="2024-01-30T08:18:02.622Z" agent="Mozilla/5.0 (Macintosh; Intel Mac OS X 10_15_7) AppleWebKit/537.36 (KHTML, like Gecko) draw.io/21.2.8 Chrome/112.0.5615.165 Electron/24.2.0 Safari/537.36" etag="tOgBNH9wpTvW_NZzcYuq" version="21.2.8" type="device">
  <diagram name="Seite-1" id="nlHr919rte_0PtPNK8q7">
    <mxGraphModel dx="2278" dy="684" grid="1" gridSize="10" guides="1" tooltips="1" connect="1" arrows="1" fold="1" page="1" pageScale="1" pageWidth="827" pageHeight="1169" math="0" shadow="0">
      <root>
        <mxCell id="0" />
        <mxCell id="1" parent="0" />
        <mxCell id="EOB59WXxJQmbOtyyZcYU-1" value="" style="rounded=0;whiteSpace=wrap;html=1;" parent="1" vertex="1">
          <mxGeometry x="-72.5" y="80" width="980" height="730" as="geometry" />
        </mxCell>
        <mxCell id="EOB59WXxJQmbOtyyZcYU-2" value="" style="rounded=0;whiteSpace=wrap;html=1;" parent="1" vertex="1">
          <mxGeometry x="-52.5" y="110" width="940" height="690" as="geometry" />
        </mxCell>
        <mxCell id="EOB59WXxJQmbOtyyZcYU-3" value="Kubernetes Cluster" style="text;html=1;strokeColor=none;fillColor=none;align=center;verticalAlign=middle;whiteSpace=wrap;rounded=0;" parent="1" vertex="1">
          <mxGeometry x="40" y="85" width="110" height="20" as="geometry" />
        </mxCell>
        <mxCell id="EOB59WXxJQmbOtyyZcYU-4" value="Worker Node" style="text;html=1;strokeColor=none;fillColor=none;align=center;verticalAlign=middle;whiteSpace=wrap;rounded=0;" parent="1" vertex="1">
          <mxGeometry x="40" y="120" width="110" height="20" as="geometry" />
        </mxCell>
        <mxCell id="wFnV2yA6YprLWYtUVgxq-1" value="" style="rounded=0;whiteSpace=wrap;html=1;" parent="1" vertex="1">
          <mxGeometry x="-4.5" y="299" width="210" height="160" as="geometry" />
        </mxCell>
        <mxCell id="wFnV2yA6YprLWYtUVgxq-3" value="OEM Pod" style="text;html=1;strokeColor=none;fillColor=none;align=center;verticalAlign=middle;whiteSpace=wrap;rounded=0;" parent="1" vertex="1">
          <mxGeometry x="-15.5" y="309" width="110" height="20" as="geometry" />
        </mxCell>
        <mxCell id="wFnV2yA6YprLWYtUVgxq-4" value="" style="rounded=0;whiteSpace=wrap;html=1;" parent="1" vertex="1">
          <mxGeometry x="5.5" y="339" width="190" height="110" as="geometry" />
        </mxCell>
        <mxCell id="EOB59WXxJQmbOtyyZcYU-5" value="OEM_EDC.jar" style="rounded=0;whiteSpace=wrap;html=1;" parent="1" vertex="1">
          <mxGeometry x="35.5" y="374" width="120" height="60" as="geometry" />
        </mxCell>
        <mxCell id="wFnV2yA6YprLWYtUVgxq-5" value="OEM Container" style="text;html=1;strokeColor=none;fillColor=none;align=center;verticalAlign=middle;whiteSpace=wrap;rounded=0;" parent="1" vertex="1">
          <mxGeometry x="5.5" y="358" width="110" as="geometry" />
        </mxCell>
        <mxCell id="wFnV2yA6YprLWYtUVgxq-6" value="" style="endArrow=classic;startArrow=classic;html=1;rounded=0;exitX=0.5;exitY=1;exitDx=0;exitDy=0;entryX=0.5;entryY=0;entryDx=0;entryDy=0;" parent="1" source="wFnV2yA6YprLWYtUVgxq-1" target="z7FjJxjdxGS5imSfyxNh-1" edge="1">
          <mxGeometry width="50" height="50" relative="1" as="geometry">
            <mxPoint x="420" y="460" as="sourcePoint" />
            <mxPoint x="244.5" y="680" as="targetPoint" />
          </mxGeometry>
        </mxCell>
        <mxCell id="wFnV2yA6YprLWYtUVgxq-8" value="" style="rounded=0;whiteSpace=wrap;html=1;" parent="1" vertex="1">
          <mxGeometry x="310.5" y="129" width="210" height="160" as="geometry" />
        </mxCell>
        <mxCell id="wFnV2yA6YprLWYtUVgxq-9" value="JMeter Pod" style="text;html=1;strokeColor=none;fillColor=none;align=center;verticalAlign=middle;whiteSpace=wrap;rounded=0;" parent="1" vertex="1">
          <mxGeometry x="306" y="136" width="110" height="20" as="geometry" />
        </mxCell>
        <mxCell id="wFnV2yA6YprLWYtUVgxq-10" value="" style="rounded=0;whiteSpace=wrap;html=1;" parent="1" vertex="1">
          <mxGeometry x="320" y="164" width="190" height="110" as="geometry" />
        </mxCell>
        <mxCell id="wFnV2yA6YprLWYtUVgxq-12" value="JMeter Container" style="text;html=1;strokeColor=none;fillColor=none;align=center;verticalAlign=middle;whiteSpace=wrap;rounded=0;" parent="1" vertex="1">
          <mxGeometry x="327" y="185" width="110" as="geometry" />
        </mxCell>
        <mxCell id="wFnV2yA6YprLWYtUVgxq-15" value="" style="rounded=0;whiteSpace=wrap;html=1;" parent="1" vertex="1">
          <mxGeometry x="630" y="299" width="210" height="160" as="geometry" />
        </mxCell>
        <mxCell id="wFnV2yA6YprLWYtUVgxq-16" value="Supplier Pod" style="text;html=1;strokeColor=none;fillColor=none;align=center;verticalAlign=middle;whiteSpace=wrap;rounded=0;" parent="1" vertex="1">
          <mxGeometry x="630" y="309" width="110" height="20" as="geometry" />
        </mxCell>
        <mxCell id="wFnV2yA6YprLWYtUVgxq-17" value="" style="rounded=0;whiteSpace=wrap;html=1;" parent="1" vertex="1">
          <mxGeometry x="640" y="339" width="190" height="110" as="geometry" />
        </mxCell>
        <mxCell id="wFnV2yA6YprLWYtUVgxq-18" value="Supplier_EDC.jar" style="rounded=0;whiteSpace=wrap;html=1;" parent="1" vertex="1">
          <mxGeometry x="670" y="374" width="120" height="60" as="geometry" />
        </mxCell>
        <mxCell id="wFnV2yA6YprLWYtUVgxq-19" value="Supplier Container" style="text;html=1;strokeColor=none;fillColor=none;align=center;verticalAlign=middle;whiteSpace=wrap;rounded=0;" parent="1" vertex="1">
          <mxGeometry x="653.5" y="358" width="110" as="geometry" />
        </mxCell>
        <mxCell id="EOB59WXxJQmbOtyyZcYU-9" value="JMeterScript" style="points=[[0.25,0,0],[0.5,0,0],[0.75,0,0],[1,0.25,0],[1,0.5,0],[1,0.75,0],[0.75,1,0],[0.5,1,0],[0.25,1,0],[0,0.75,0],[0,0.5,0],[0,0.25,0]];shape=mxgraph.bpmn.task;whiteSpace=wrap;rectStyle=rounded;size=10;html=1;container=1;expand=0;collapsible=0;taskMarker=script;" parent="1" vertex="1">
          <mxGeometry x="362.5" y="209" width="105" height="54" as="geometry" />
        </mxCell>
        <mxCell id="wFnV2yA6YprLWYtUVgxq-22" value="" style="endArrow=classic;startArrow=classic;html=1;rounded=0;entryX=0.5;entryY=0;entryDx=0;entryDy=0;exitX=0;exitY=0.5;exitDx=0;exitDy=0;" parent="1" source="wFnV2yA6YprLWYtUVgxq-8" target="wFnV2yA6YprLWYtUVgxq-1" edge="1">
          <mxGeometry width="50" height="50" relative="1" as="geometry">
            <mxPoint x="355.5" y="365" as="sourcePoint" />
            <mxPoint x="405.5" y="315" as="targetPoint" />
          </mxGeometry>
        </mxCell>
        <mxCell id="wFnV2yA6YprLWYtUVgxq-23" value="" style="endArrow=classic;startArrow=classic;html=1;rounded=0;exitX=1;exitY=0.5;exitDx=0;exitDy=0;entryX=0.5;entryY=0;entryDx=0;entryDy=0;" parent="1" source="wFnV2yA6YprLWYtUVgxq-8" target="wFnV2yA6YprLWYtUVgxq-15" edge="1">
          <mxGeometry width="50" height="50" relative="1" as="geometry">
            <mxPoint x="502" y="384" as="sourcePoint" />
            <mxPoint x="430" y="314" as="targetPoint" />
          </mxGeometry>
        </mxCell>
        <mxCell id="z7FjJxjdxGS5imSfyxNh-1" value="" style="rounded=0;whiteSpace=wrap;html=1;" parent="1" vertex="1">
          <mxGeometry x="-3.5" y="585" width="210" height="160" as="geometry" />
        </mxCell>
        <mxCell id="z7FjJxjdxGS5imSfyxNh-2" value="Database Pod" style="text;html=1;strokeColor=none;fillColor=none;align=center;verticalAlign=middle;whiteSpace=wrap;rounded=0;" parent="1" vertex="1">
          <mxGeometry x="-5.5" y="595" width="110" height="20" as="geometry" />
        </mxCell>
        <mxCell id="z7FjJxjdxGS5imSfyxNh-3" value="" style="rounded=0;whiteSpace=wrap;html=1;" parent="1" vertex="1">
          <mxGeometry x="6.5" y="625" width="190" height="110" as="geometry" />
        </mxCell>
        <mxCell id="z7FjJxjdxGS5imSfyxNh-5" value="Database Container" style="text;html=1;strokeColor=none;fillColor=none;align=center;verticalAlign=middle;whiteSpace=wrap;rounded=0;" parent="1" vertex="1">
          <mxGeometry x="15.5" y="644" width="110" as="geometry" />
        </mxCell>
        <mxCell id="z7FjJxjdxGS5imSfyxNh-6" value="OEM Postgres Database" style="rounded=0;whiteSpace=wrap;html=1;" parent="1" vertex="1">
          <mxGeometry x="39.5" y="665" width="120" height="60" as="geometry" />
        </mxCell>
        <mxCell id="z7FjJxjdxGS5imSfyxNh-7" value="" style="rounded=0;whiteSpace=wrap;html=1;" parent="1" vertex="1">
          <mxGeometry x="630" y="585" width="210" height="160" as="geometry" />
        </mxCell>
        <mxCell id="z7FjJxjdxGS5imSfyxNh-8" value="Database Pod" style="text;html=1;strokeColor=none;fillColor=none;align=center;verticalAlign=middle;whiteSpace=wrap;rounded=0;" parent="1" vertex="1">
          <mxGeometry x="628" y="595" width="110" height="20" as="geometry" />
        </mxCell>
        <mxCell id="z7FjJxjdxGS5imSfyxNh-9" value="" style="rounded=0;whiteSpace=wrap;html=1;" parent="1" vertex="1">
          <mxGeometry x="640" y="625" width="190" height="110" as="geometry" />
        </mxCell>
        <mxCell id="z7FjJxjdxGS5imSfyxNh-10" value="Database Container" style="text;html=1;strokeColor=none;fillColor=none;align=center;verticalAlign=middle;whiteSpace=wrap;rounded=0;" parent="1" vertex="1">
          <mxGeometry x="649" y="644" width="110" as="geometry" />
        </mxCell>
        <mxCell id="wFnV2yA6YprLWYtUVgxq-14" value="Supplier Postgres Database" style="rounded=0;whiteSpace=wrap;html=1;" parent="1" vertex="1">
          <mxGeometry x="675" y="665" width="120" height="60" as="geometry" />
        </mxCell>
        <mxCell id="z7FjJxjdxGS5imSfyxNh-12" value="" style="endArrow=classic;startArrow=classic;html=1;rounded=0;exitX=0.5;exitY=1;exitDx=0;exitDy=0;entryX=0.5;entryY=0;entryDx=0;entryDy=0;" parent="1" source="wFnV2yA6YprLWYtUVgxq-15" target="z7FjJxjdxGS5imSfyxNh-7" edge="1">
          <mxGeometry width="50" height="50" relative="1" as="geometry">
            <mxPoint x="600" y="490" as="sourcePoint" />
            <mxPoint x="602" y="660" as="targetPoint" />
          </mxGeometry>
        </mxCell>
        <mxCell id="z7FjJxjdxGS5imSfyxNh-16" value="" style="rounded=0;whiteSpace=wrap;html=1;" parent="1" vertex="1">
          <mxGeometry x="310.5" y="299" width="210" height="160" as="geometry" />
        </mxCell>
        <mxCell id="z7FjJxjdxGS5imSfyxNh-17" value="MIW Pod" style="text;html=1;strokeColor=none;fillColor=none;align=center;verticalAlign=middle;whiteSpace=wrap;rounded=0;" parent="1" vertex="1">
          <mxGeometry x="299.5" y="309" width="110" height="20" as="geometry" />
        </mxCell>
        <mxCell id="z7FjJxjdxGS5imSfyxNh-18" value="" style="rounded=0;whiteSpace=wrap;html=1;" parent="1" vertex="1">
          <mxGeometry x="320.5" y="339" width="190" height="110" as="geometry" />
        </mxCell>
        <mxCell id="z7FjJxjdxGS5imSfyxNh-19" value="Managed Identity Wallet" style="rounded=0;whiteSpace=wrap;html=1;" parent="1" vertex="1">
          <mxGeometry x="350.5" y="374" width="120" height="60" as="geometry" />
        </mxCell>
        <mxCell id="z7FjJxjdxGS5imSfyxNh-20" value="MIW Container" style="text;html=1;strokeColor=none;fillColor=none;align=center;verticalAlign=middle;whiteSpace=wrap;rounded=0;" parent="1" vertex="1">
          <mxGeometry x="320.5" y="358" width="110" as="geometry" />
        </mxCell>
        <mxCell id="z7FjJxjdxGS5imSfyxNh-21" value="" style="endArrow=classic;startArrow=classic;html=1;rounded=0;exitX=0;exitY=0.5;exitDx=0;exitDy=0;" parent="1" source="wFnV2yA6YprLWYtUVgxq-15" target="z7FjJxjdxGS5imSfyxNh-16" edge="1">
          <mxGeometry width="50" height="50" relative="1" as="geometry">
            <mxPoint x="620" y="210" as="sourcePoint" />
            <mxPoint x="690" y="140" as="targetPoint" />
          </mxGeometry>
        </mxCell>
        <mxCell id="z7FjJxjdxGS5imSfyxNh-22" value="" style="endArrow=classic;startArrow=classic;html=1;rounded=0;exitX=1;exitY=0.5;exitDx=0;exitDy=0;" parent="1" source="wFnV2yA6YprLWYtUVgxq-1" target="z7FjJxjdxGS5imSfyxNh-16" edge="1">
          <mxGeometry width="50" height="50" relative="1" as="geometry">
            <mxPoint x="130" y="250" as="sourcePoint" />
            <mxPoint x="200" y="180" as="targetPoint" />
          </mxGeometry>
        </mxCell>
        <mxCell id="hh2y1j36DKqZFNexatsC-1" value="" style="rounded=0;whiteSpace=wrap;html=1;" vertex="1" parent="1">
          <mxGeometry x="311.5" y="585" width="210" height="160" as="geometry" />
        </mxCell>
        <mxCell id="hh2y1j36DKqZFNexatsC-2" value="Database Pod" style="text;html=1;strokeColor=none;fillColor=none;align=center;verticalAlign=middle;whiteSpace=wrap;rounded=0;" vertex="1" parent="1">
          <mxGeometry x="309.5" y="595" width="110" height="20" as="geometry" />
        </mxCell>
        <mxCell id="hh2y1j36DKqZFNexatsC-3" value="" style="rounded=0;whiteSpace=wrap;html=1;" vertex="1" parent="1">
          <mxGeometry x="321.5" y="625" width="190" height="110" as="geometry" />
        </mxCell>
        <mxCell id="hh2y1j36DKqZFNexatsC-4" value="Database Container" style="text;html=1;strokeColor=none;fillColor=none;align=center;verticalAlign=middle;whiteSpace=wrap;rounded=0;" vertex="1" parent="1">
          <mxGeometry x="330.5" y="644" width="110" as="geometry" />
        </mxCell>
        <mxCell id="hh2y1j36DKqZFNexatsC-5" value="MIW Postgres Database" style="rounded=0;whiteSpace=wrap;html=1;" vertex="1" parent="1">
          <mxGeometry x="356.5" y="665" width="120" height="60" as="geometry" />
        </mxCell>
        <mxCell id="hh2y1j36DKqZFNexatsC-6" value="" style="endArrow=classic;startArrow=classic;html=1;rounded=0;" edge="1" parent="1" source="z7FjJxjdxGS5imSfyxNh-16" target="hh2y1j36DKqZFNexatsC-1">
          <mxGeometry width="50" height="50" relative="1" as="geometry">
            <mxPoint x="111" y="469" as="sourcePoint" />
            <mxPoint x="112" y="595" as="targetPoint" />
          </mxGeometry>
        </mxCell>
      </root>
    </mxGraphModel>
  </diagram>
</mxfile>
